<svg width="703" height="648" viewBox="0 0 703 648" fill="none" xmlns="http://www.w3.org/2000/svg">
<path fill-rule="evenodd" clip-rule="evenodd" d="M356.676 27.6688C406.515 27.0298 456.252 -13.341 502.76 4.58598C548.783 22.3262 560.73 82.593 593.891 119.106C627.197 155.779 685.938 173.656 699.563 221.285C713.283 269.244 678.453 317.206 664.242 365.022C651.968 406.319 653.037 456.456 621.081 485.35C587.859 515.389 525.622 489.576 492.791 520.042C453.469 556.532 467.533 588.309 425 621C386.046 650.94 326.192 654.71 280.159 637.539C233.477 620.126 213.672 611.737 181.71 573.515C155.383 542.031 137.177 505.819 109.845 475.204C75.7609 437.025 4.38304 421.171 0.171204 370.166C-4.08678 318.602 72.3217 294.626 90.947 246.355C108.262 201.48 80.9836 146.982 102.823 104.125C125.078 60.4512 165.315 22.4469 212.25 8.3107C259.273 -5.85175 307.571 28.2984 356.676 27.6688Z" fill="#4BA1F4"/>
<path d="M362.7 270C355.285 248.949 341.52 230.717 323.304 217.821C305.088 204.925 283.319 197.999 261 198C201.42 198 153 246.42 153 306C153 365.58 201.42 414 261 414C283.319 414.001 305.088 407.075 323.304 394.179C341.52 381.283 355.285 363.051 362.7 342H441V414H513V342H549V270H362.7ZM261 342C241.2 342 225 325.8 225 306C225 286.2 241.2 270 261 270C280.8 270 297 286.2 297 306C297 325.8 280.8 342 261 342Z" fill="black" fill-opacity="0.28"/>
</svg>
