<svg xmlns="http://www.w3.org/2000/svg" viewBox="0 0 1440 320"><path fill="#0099ff" fill-opacity="1" d="M0,128L18.5,149.3C36.9,171,74,213,111,234.7C147.7,256,185,256,222,234.7C258.5,213,295,171,332,149.3C369.2,128,406,128,443,154.7C480,181,517,235,554,234.7C590.8,235,628,181,665,149.3C701.5,117,738,107,775,138.7C812.3,171,849,245,886,245.3C923.1,245,960,171,997,122.7C1033.8,75,1071,53,1108,48C1144.6,43,1182,53,1218,90.7C1255.4,128,1292,192,1329,192C1366.2,192,1403,128,1422,96L1440,64L1440,320L1421.5,320C1403.1,320,1366,320,1329,320C1292.3,320,1255,320,1218,320C1181.5,320,1145,320,1108,320C1070.8,320,1034,320,997,320C960,320,923,320,886,320C849.2,320,812,320,775,320C738.5,320,702,320,665,320C627.7,320,591,320,554,320C516.9,320,480,320,443,320C406.2,320,369,320,332,320C295.4,320,258,320,222,320C184.6,320,148,320,111,320C73.8,320,37,320,18,320L0,320Z"></path></svg>